<svg width="151" height="140" viewBox="0 0 151 140" fill="none" xmlns="http://www.w3.org/2000/svg">
<path d="M8.16903 131L0.677557 104.818H6.72443L11.0582 123.01H11.2756L16.0568 104.818H21.2344L26.0028 123.048H26.233L30.5668 104.818H36.6136L29.1222 131H23.7273L18.7415 113.882H18.5369L13.5639 131H8.16903ZM46.3136 131.384C44.2937 131.384 42.555 130.974 41.0977 130.156C39.6488 129.33 38.5323 128.162 37.7482 126.653C36.9641 125.136 36.5721 123.342 36.5721 121.271C36.5721 119.251 36.9641 117.479 37.7482 115.953C38.5323 114.428 39.636 113.239 41.0593 112.386C42.4911 111.534 44.1701 111.108 46.0962 111.108C47.3917 111.108 48.5977 111.317 49.7141 111.734C50.8391 112.143 51.8192 112.761 52.6545 113.588C53.4982 114.415 54.1545 115.455 54.6232 116.707C55.092 117.952 55.3264 119.409 55.3264 121.08V122.575H38.7454V119.2H50.1999C50.1999 118.416 50.0295 117.722 49.6886 117.116C49.3477 116.511 48.8746 116.038 48.2695 115.697C47.6729 115.348 46.9783 115.173 46.1857 115.173C45.359 115.173 44.6261 115.365 43.9869 115.749C43.3562 116.124 42.8619 116.631 42.5039 117.27C42.146 117.901 41.9627 118.604 41.9542 119.379V122.588C41.9542 123.56 42.1332 124.399 42.4911 125.107C42.8576 125.814 43.3732 126.359 44.038 126.743C44.7028 127.126 45.4911 127.318 46.4031 127.318C47.0082 127.318 47.5621 127.233 48.065 127.062C48.5678 126.892 48.9982 126.636 49.3562 126.295C49.7141 125.955 49.9869 125.537 50.1744 125.043L55.2113 125.375C54.9556 126.585 54.4315 127.642 53.6389 128.545C52.8548 129.44 51.8406 130.139 50.5962 130.642C49.3604 131.136 47.9329 131.384 46.3136 131.384ZM64.4798 131.371C63.2269 131.371 62.1104 131.153 61.1303 130.719C60.1502 130.276 59.3746 129.624 58.8036 128.763C58.2411 127.893 57.9599 126.811 57.9599 125.516C57.9599 124.425 58.1602 123.509 58.5607 122.767C58.9613 122.026 59.5067 121.429 60.1971 120.977C60.8874 120.526 61.6715 120.185 62.5494 119.955C63.4357 119.724 64.3647 119.562 65.3363 119.469C66.4783 119.349 67.3988 119.239 68.0977 119.136C68.7965 119.026 69.3036 118.864 69.619 118.651C69.9343 118.437 70.092 118.122 70.092 117.705V117.628C70.092 116.818 69.8363 116.192 69.3249 115.749C68.8221 115.305 68.1062 115.084 67.1772 115.084C66.1971 115.084 65.4173 115.301 64.8377 115.736C64.2582 116.162 63.8746 116.699 63.6871 117.347L58.6502 116.938C58.9059 115.744 59.4087 114.713 60.1587 113.844C60.9087 112.966 61.8761 112.293 63.0607 111.824C64.2539 111.347 65.6346 111.108 67.2028 111.108C68.2937 111.108 69.3377 111.236 70.3349 111.491C71.3406 111.747 72.2312 112.143 73.0067 112.68C73.7908 113.217 74.4087 113.908 74.8604 114.751C75.3121 115.587 75.538 116.588 75.538 117.756V131H70.3732V128.277H70.2198C69.9045 128.891 69.4826 129.432 68.9542 129.901C68.4258 130.361 67.7908 130.723 67.0494 130.987C66.3079 131.243 65.4513 131.371 64.4798 131.371ZM66.0394 127.612C66.8406 127.612 67.5479 127.455 68.1616 127.139C68.7752 126.815 69.2567 126.381 69.6062 125.835C69.9556 125.29 70.1303 124.672 70.1303 123.982V121.898C69.9599 122.009 69.7255 122.111 69.4272 122.205C69.1374 122.29 68.8093 122.371 68.4428 122.447C68.0763 122.516 67.7099 122.58 67.3434 122.639C66.9769 122.69 66.6445 122.737 66.3462 122.78C65.707 122.874 65.1488 123.023 64.6715 123.227C64.1942 123.432 63.8235 123.709 63.5593 124.058C63.2951 124.399 63.163 124.825 63.163 125.337C63.163 126.078 63.4315 126.645 63.9684 127.037C64.5138 127.42 65.2042 127.612 66.0394 127.612ZM90.2077 111.364V115.455H78.3825V111.364H90.2077ZM81.0671 106.659H86.5131V124.966C86.5131 125.469 86.5898 125.861 86.7433 126.142C86.8967 126.415 87.1097 126.607 87.3825 126.717C87.6637 126.828 87.9876 126.884 88.354 126.884C88.6097 126.884 88.8654 126.862 89.1211 126.82C89.3768 126.768 89.5728 126.73 89.7092 126.705L90.5657 130.757C90.293 130.842 89.9094 130.94 89.4151 131.051C88.9208 131.17 88.32 131.243 87.6126 131.268C86.3001 131.32 85.1495 131.145 84.1609 130.744C83.1808 130.344 82.418 129.722 81.8725 128.878C81.3271 128.034 81.0586 126.969 81.0671 125.682V106.659ZM99.6232 119.648V131H94.1772V104.818H99.4698V114.828H99.6999C100.143 113.669 100.859 112.761 101.848 112.105C102.836 111.44 104.076 111.108 105.568 111.108C106.931 111.108 108.12 111.406 109.135 112.003C110.157 112.591 110.95 113.439 111.512 114.547C112.083 115.646 112.365 116.963 112.356 118.497V131H106.91V119.469C106.919 118.259 106.612 117.317 105.99 116.643C105.376 115.97 104.515 115.634 103.407 115.634C102.666 115.634 102.01 115.791 101.439 116.107C100.876 116.422 100.433 116.882 100.109 117.487C99.7937 118.084 99.6317 118.804 99.6232 119.648ZM125.591 131.384C123.571 131.384 121.832 130.974 120.375 130.156C118.926 129.33 117.81 128.162 117.026 126.653C116.241 125.136 115.849 123.342 115.849 121.271C115.849 119.251 116.241 117.479 117.026 115.953C117.81 114.428 118.913 113.239 120.337 112.386C121.768 111.534 123.447 111.108 125.374 111.108C126.669 111.108 127.875 111.317 128.991 111.734C130.116 112.143 131.097 112.761 131.932 113.588C132.776 114.415 133.432 115.455 133.901 116.707C134.369 117.952 134.604 119.409 134.604 121.08V122.575H118.023V119.2H129.477C129.477 118.416 129.307 117.722 128.966 117.116C128.625 116.511 128.152 116.038 127.547 115.697C126.95 115.348 126.256 115.173 125.463 115.173C124.636 115.173 123.903 115.365 123.264 115.749C122.634 116.124 122.139 116.631 121.781 117.27C121.423 117.901 121.24 118.604 121.232 119.379V122.588C121.232 123.56 121.411 124.399 121.768 125.107C122.135 125.814 122.651 126.359 123.315 126.743C123.98 127.126 124.768 127.318 125.68 127.318C126.286 127.318 126.839 127.233 127.342 127.062C127.845 126.892 128.276 126.636 128.634 126.295C128.991 125.955 129.264 125.537 129.452 125.043L134.489 125.375C134.233 126.585 133.709 127.642 132.916 128.545C132.132 129.44 131.118 130.139 129.874 130.642C128.638 131.136 127.21 131.384 125.591 131.384ZM138.158 131V111.364H143.438V114.79H143.642C144 113.571 144.601 112.651 145.445 112.028C146.288 111.398 147.26 111.082 148.359 111.082C148.632 111.082 148.926 111.099 149.241 111.134C149.557 111.168 149.834 111.214 150.072 111.274V116.107C149.817 116.03 149.463 115.962 149.011 115.902C148.56 115.842 148.146 115.812 147.771 115.812C146.97 115.812 146.254 115.987 145.624 116.337C145.001 116.678 144.507 117.155 144.141 117.768C143.783 118.382 143.604 119.089 143.604 119.891V131H138.158Z" fill="white"/>
<path d="M76.4649 55.7813L69.3672 63.75H85.1797C85.7044 63.7401 86.2256 63.8152 86.7068 63.97C87.1879 64.1249 87.6174 64.3558 87.9649 64.6465C88.5031 65.0777 88.8272 65.6311 88.8844 66.2162C88.9415 66.8013 88.7282 67.3834 88.2793 67.8672L76.5098 81.1484C76.1761 81.5125 75.7279 81.8115 75.2038 82.0196C74.6796 82.2278 74.095 82.339 73.5001 82.3438C72.6681 82.3367 71.8627 82.1266 71.209 81.7461C70.5299 81.3092 70.0876 80.7055 69.9637 80.0464C69.8399 79.3873 70.0429 78.7173 70.5352 78.1602L78.6211 69.0625H62.8086C62.2853 69.0659 61.7668 68.9879 61.2869 68.8334C60.8071 68.679 60.3766 68.4516 60.0235 68.166C59.5064 67.7267 59.1962 67.1752 59.1395 66.5944C59.0828 66.0137 59.2827 65.435 59.709 64.9453L67.8399 55.7813H50.5001C37.6075 55.7813 26.8711 48.1445 26.7813 38.6152C26.7557 34.861 28.3863 31.2029 31.4261 28.1952C34.4659 25.1875 38.7492 22.9941 43.627 21.9473C43.9257 21.8846 44.2412 21.8803 44.5429 21.9346C44.8445 21.9889 45.1219 22.1001 45.3481 22.2573C45.5744 22.4144 45.7416 22.6122 45.8336 22.8314C45.9256 23.0506 45.9392 23.2836 45.8731 23.5078C45.135 25.7921 44.7581 28.132 44.7501 30.4805C44.7569 31.1619 45.105 31.8172 45.7272 32.3201C46.3494 32.8229 47.2016 33.1375 48.1192 33.2031C48.6097 33.2258 49.1013 33.1739 49.5635 33.0507C50.0258 32.9274 50.449 32.7353 50.8068 32.4864C51.1647 32.2374 51.4497 31.9368 51.6442 31.6033C51.8387 31.2697 51.9385 30.9101 51.9376 30.5469C51.9367 27.4605 52.6979 24.4 54.1836 21.5156V21.5156C56.4099 17.2224 60.1808 13.4604 65.0891 10.6358C69.9973 7.81126 75.8564 6.03154 82.0334 5.48889C88.2104 4.94623 94.4706 5.66127 100.138 7.55676C105.805 9.45225 110.664 12.4562 114.19 16.244C117.716 20.0319 119.774 24.4598 120.143 29.0495C120.512 33.6391 119.178 38.2161 116.284 42.286C113.39 46.356 109.047 49.7642 103.724 52.1426C98.4002 54.521 92.2987 55.7792 86.0782 55.7813H76.4649Z" fill="#61DAFB"/>
</svg>